<svg width="240" height="227" viewBox="0 0 240 227" fill="none" xmlns="http://www.w3.org/2000/svg">
<path d="M236.536 20.5986C237.773 19.2681 240.001 20.1439 240.001 21.9609V43.6836C240.001 44.116 239.86 44.5368 239.601 44.8828L188.476 113.119C187.488 114.438 188.429 116.318 190.077 116.318H229.498C230.074 116.318 230.622 116.07 231.002 115.637L236.274 109.62C237.491 108.232 239.778 109.093 239.778 110.938V139.273C239.778 140.378 238.882 141.273 237.778 141.273H101.544C100.662 141.273 99.8833 140.696 99.6285 139.852L93.896 120.86C93.6411 120.016 92.8629 119.438 91.981 119.438H57.3335C56.4517 119.438 55.6734 120.016 55.4185 120.86L49.6861 139.852C49.4312 140.696 48.653 141.273 47.771 141.273H5.08745C2.99373 141.273 2.30762 138.464 4.16557 137.499L19.0318 129.775C19.4945 129.535 19.8448 129.123 20.0083 128.628L53.0367 28.5664C53.3072 27.747 54.0731 27.1934 54.9361 27.1934H94.3785C95.2414 27.1934 96.0073 27.747 96.2779 28.5664L118.607 96.2148C119.319 98.3722 122.506 97.8598 122.506 95.5879V29.1934C122.506 28.0888 123.402 27.1934 124.506 27.1934H146.864L146.865 27.1924H229.533C230.088 27.1923 230.619 26.9615 230.998 26.5547L236.536 20.5986ZM155.478 52.1475C154.374 52.1475 153.478 53.043 153.478 54.1475V108.986C153.478 110.909 155.926 111.724 157.079 110.186L198.166 55.3467C199.153 54.0282 198.212 52.1478 196.565 52.1475H155.478ZM74.6568 58.6094C74.3924 58.6094 74.159 58.783 74.0826 59.0361L63.6216 93.6875C63.234 94.9714 64.1955 96.2656 65.5367 96.2656H83.7769C85.1181 96.2656 86.0796 94.9714 85.6919 93.6875L75.231 59.0361C75.1546 58.783 74.9212 58.6094 74.6568 58.6094ZM73.3326 8.38086C73.9211 8.38095 74.3941 8.86066 74.3941 9.44922V19.2979C74.3941 19.8823 73.917 20.3545 73.3326 20.3486C64.9259 20.3487 57.4152 21.8253 52.0865 24.1299C49.4188 25.2836 47.3949 26.605 46.0679 27.9619C44.9151 29.1409 44.3634 30.2624 44.2437 31.2979L44.2183 31.7354C44.2183 32.8896 44.7507 34.1617 46.0679 35.5088C46.2927 35.7387 46.5376 35.9674 46.8023 36.1943C47.4732 36.7696 47.792 37.6783 47.5152 38.5176L44.9556 46.2695C44.5649 47.4524 43.1966 47.9976 42.1412 47.3359C35.8907 43.4151 31.6412 38.0395 31.6412 31.7354C31.6413 24.7136 36.9121 18.8423 44.3492 14.8516C51.8749 10.8136 62.1267 8.38092 73.3326 8.38086ZM108.447 3.10352C108.911 2.16053 110.33 2.48111 110.344 3.53223L110.606 22.8027C110.609 23.0492 110.521 23.2889 110.359 23.4746L100.772 34.4512C100.67 34.5678 100.48 34.5298 100.431 34.3828L98.3199 27.9844C97.7455 26.2452 96.1211 25.0699 94.2896 25.0693H82.729C82.5088 25.069 82.451 24.7648 82.6558 24.6836L101.14 17.3652C101.371 17.2738 101.56 17.0996 101.669 16.877L108.447 3.10352ZM72.5259 18.2305C72.7939 18.2275 73.0629 18.2256 73.3326 18.2256C73.6021 18.2256 73.8712 18.2268 74.1392 18.2295L73.3326 18.2246C73.0629 18.2246 72.7939 18.2273 72.5259 18.2305Z" fill="#ECF2F4"/>
<path d="M134.544 187.36C136.383 187.36 138.133 187.85 139.791 188.831C141.461 189.811 142.816 191.355 143.857 193.46C144.91 195.566 145.436 198.302 145.436 201.667C145.436 204.886 144.934 207.555 143.929 209.673C142.937 211.791 141.605 213.371 139.935 214.412C138.277 215.452 136.455 215.973 134.47 215.973C133.163 215.973 131.995 215.761 130.966 215.337C129.95 214.902 129.078 214.315 128.352 213.577C127.652 212.841 127.108 212.011 126.722 211.088C126.709 211.056 126.677 211.035 126.641 211.035C126.593 211.035 126.554 211.074 126.554 211.122V224.068C126.554 225.172 125.659 226.068 124.554 226.068H118.533C117.428 226.068 116.533 225.172 116.533 224.068V189.723C116.533 188.619 117.428 187.723 118.533 187.723H124.482C125.587 187.723 126.482 188.619 126.482 189.723V192.459C126.482 192.531 126.54 192.588 126.611 192.588C126.664 192.588 126.712 192.555 126.732 192.505C127.094 191.594 127.616 190.756 128.297 189.993C128.999 189.194 129.871 188.558 130.912 188.086C131.953 187.602 133.164 187.36 134.544 187.36ZM218.514 187.722C219.444 187.722 220.251 188.363 220.463 189.268L224.571 206.897C224.59 206.98 224.664 207.039 224.75 207.04C224.835 207.04 224.909 206.981 224.928 206.898L229.106 189.261C229.32 188.359 230.125 187.722 231.052 187.722H237.217C238.585 187.722 239.549 189.064 239.113 190.36L229.833 217.933C229.324 219.47 228.586 220.85 227.618 222.073C226.662 223.307 225.403 224.282 223.841 224.996C222.28 225.71 220.332 226.067 217.996 226.067C216.846 226.067 215.75 225.976 214.71 225.794C214.379 225.741 214.061 225.68 213.755 225.613C212.73 225.387 212.207 224.307 212.514 223.303L213.537 219.964C213.87 218.877 215.038 218.324 216.162 218.5C216.241 218.512 216.32 218.523 216.398 218.533C217.088 218.617 217.675 218.569 218.159 218.387C218.655 218.206 219.012 217.86 219.23 217.352C219.37 217.025 219.385 216.658 219.271 216.321L210.532 190.36C210.096 189.064 211.06 187.722 212.427 187.722H218.514ZM18.9283 187.36C21.6636 187.36 24.0299 187.856 26.027 188.848C28.036 189.828 29.5916 191.221 30.693 193.024C31.4787 194.302 31.9871 195.74 32.2184 197.338C32.377 198.435 31.4615 199.342 30.3531 199.342H24.8941C23.86 199.342 23.0439 198.534 22.7037 197.557C22.4871 196.935 22.1847 196.416 21.7965 196.001C21.0945 195.227 20.1863 194.84 19.0729 194.84C18.2017 194.84 17.4392 195.094 16.7858 195.602C16.1323 196.098 15.6234 196.855 15.2604 197.872C14.8973 198.876 14.7164 200.142 14.7164 201.667C14.7164 203.191 14.8973 204.462 15.2604 205.479C15.6235 206.484 16.1322 207.24 16.7858 207.749C17.4392 208.245 18.2016 208.493 19.0729 208.493C19.811 208.493 20.465 208.324 21.0338 207.985C21.6026 207.634 22.0627 207.125 22.4137 206.459C22.5235 206.254 22.6204 206.036 22.7037 205.804C23.0581 204.82 23.877 203.991 24.9234 203.991H30.3326C31.4486 203.991 32.3664 204.908 32.2037 206.012C31.9633 207.641 31.4535 209.11 30.6744 210.417C29.5852 212.233 28.0423 213.637 26.0455 214.629C24.0606 215.622 21.6878 216.119 18.9283 216.119C15.9025 216.119 13.3122 215.519 11.1578 214.321C9.00346 213.11 7.35064 211.428 6.20079 209.274C5.05097 207.107 4.47621 204.595 4.47618 201.739C4.47622 198.882 5.05104 196.377 6.20079 194.222C7.35062 192.056 9.0035 190.374 11.1578 189.175C13.3122 187.965 15.9025 187.36 18.9283 187.36ZM49.9332 187.36C52.959 187.36 55.5493 187.965 57.7037 189.175C59.8581 190.374 61.5109 192.057 62.6608 194.223C63.8103 196.377 64.3853 198.883 64.3854 201.739C64.3853 204.595 63.8106 207.107 62.6608 209.274C61.5109 211.428 59.8581 213.11 57.7037 214.321C55.5493 215.519 52.959 216.119 49.9332 216.119C46.9074 216.119 44.3171 215.519 42.1627 214.321C40.0085 213.111 38.3565 211.428 37.2066 209.274C36.0568 207.107 35.4811 204.595 35.4811 201.739C35.4811 198.883 36.057 196.377 37.2066 194.223C38.3565 192.057 40.0083 190.374 42.1627 189.175C44.3171 187.965 46.9073 187.36 49.9332 187.36ZM162.199 187.36C164.196 187.36 165.987 187.596 167.573 188.068C169.158 188.528 170.508 189.175 171.622 190.01C172.735 190.833 173.583 191.802 174.164 192.916C174.757 194.017 175.053 195.215 175.053 196.51V213.61C175.053 214.714 174.158 215.61 173.053 215.61H167.645C166.562 215.61 165.684 214.732 165.684 213.649V211.824C165.684 211.749 165.623 211.688 165.548 211.688C165.498 211.688 165.451 211.715 165.427 211.759C164.878 212.767 164.214 213.586 163.433 214.212C162.647 214.854 161.745 215.319 160.728 215.61C159.724 215.9 158.616 216.045 157.406 216.045C155.627 216.045 154.053 215.755 152.685 215.174C151.33 214.581 150.264 213.685 149.49 212.487C148.715 211.289 148.328 209.763 148.328 207.912C148.328 206.387 148.589 205.085 149.109 204.008C149.629 202.919 150.355 202.029 151.287 201.339C152.219 200.65 153.302 200.123 154.537 199.76C155.783 199.397 157.128 199.161 158.568 199.052C160.129 198.931 161.382 198.786 162.326 198.617C163.282 198.435 163.971 198.186 164.395 197.872C164.819 197.545 165.031 197.115 165.031 196.583V196.51C165.031 195.784 164.752 195.228 164.196 194.84C163.639 194.453 162.925 194.259 162.053 194.259C161.097 194.259 160.317 194.471 159.712 194.894C159.568 194.994 159.439 195.106 159.323 195.232C158.648 195.965 157.899 196.801 156.902 196.801H151.566C150.405 196.801 149.468 195.804 149.804 194.693C150.078 193.791 150.487 192.932 151.033 192.117C152.001 190.676 153.412 189.527 155.263 188.667C157.115 187.796 159.427 187.36 162.199 187.36ZM102.585 187.36C105.26 187.36 107.426 188.219 109.085 189.938C110.755 191.657 111.59 193.945 111.59 196.801V213.61C111.59 214.714 110.695 215.61 109.59 215.61H103.568C102.463 215.61 101.568 214.714 101.568 213.61V199.342C101.568 198.12 101.259 197.164 100.642 196.474C100.025 195.772 99.1958 195.421 98.1549 195.421C97.1261 195.421 96.3089 195.772 95.7037 196.474C95.1108 197.164 94.8141 198.12 94.8141 199.342V213.61C94.8139 214.714 93.9186 215.61 92.8141 215.61H87.2281C86.1237 215.61 85.2283 214.714 85.2281 213.61V199.342C85.2281 198.12 84.9194 197.164 84.3024 196.474C83.6851 195.772 82.8558 195.421 81.815 195.421C81.1252 195.421 80.532 195.578 80.0358 195.893C79.5396 196.208 79.152 196.662 78.8736 197.254C78.6075 197.835 78.4743 198.532 78.4742 199.342V213.61C78.4741 214.714 77.5787 215.61 76.4742 215.61H70.4518C69.3473 215.61 68.4519 214.714 68.4518 213.61V189.723C68.4518 188.619 69.3472 187.723 70.4518 187.723H75.9654C77.07 187.723 77.9654 188.619 77.9654 189.723V192.856C77.9657 192.949 78.0412 193.025 78.1344 193.025C78.2072 193.025 78.2717 192.977 78.2955 192.909C78.8815 191.22 79.8613 189.879 81.234 188.885C82.638 187.869 84.3081 187.36 86.2447 187.36C88.2055 187.36 89.894 187.88 91.3102 188.921C92.6841 189.92 93.5281 191.237 93.8424 192.874C93.8591 192.96 93.9347 193.025 94.0231 193.025C94.1044 193.025 94.1757 192.97 94.1988 192.892C94.6856 191.247 95.6774 189.923 97.1744 188.921C98.7116 187.88 100.515 187.36 102.585 187.36ZM198.215 187.36C200.188 187.36 201.901 187.814 203.353 188.721C204.818 189.617 205.95 190.852 206.749 192.425C207.559 193.999 207.959 195.797 207.947 197.818V213.61C207.947 214.714 207.051 215.61 205.947 215.61H199.924C198.82 215.61 197.925 214.714 197.924 213.61V199.923C197.936 198.544 197.586 197.46 196.872 196.673C196.17 195.887 195.189 195.494 193.93 195.494C193.107 195.494 192.387 195.676 191.77 196.039C191.165 196.39 190.698 196.897 190.372 197.563C190.045 198.216 189.876 199.004 189.864 199.923V213.61C189.864 214.714 188.968 215.61 187.864 215.61H181.841C180.737 215.61 179.842 214.714 179.841 213.61V189.723C179.841 188.619 180.737 187.723 181.841 187.723H187.355C188.46 187.723 189.355 188.619 189.355 189.723V192.856C189.355 192.949 189.431 193.025 189.524 193.025C189.596 193.025 189.661 192.979 189.685 192.911C190.297 191.198 191.349 189.85 192.841 188.867C194.379 187.862 196.17 187.36 198.215 187.36ZM165.104 204.317C165.104 203.884 164.663 203.586 164.251 203.718C163.96 203.815 163.645 203.906 163.306 203.991C162.98 204.075 162.629 204.153 162.254 204.226C161.89 204.299 161.508 204.366 161.109 204.426C160.335 204.547 159.699 204.747 159.203 205.025C158.719 205.291 158.356 205.625 158.114 206.024C157.884 206.411 157.769 206.847 157.769 207.332C157.769 208.106 158.041 208.698 158.586 209.11C159.13 209.521 159.826 209.728 160.673 209.728C161.436 209.728 162.15 209.57 162.816 209.255C163.494 208.941 164.045 208.487 164.468 207.894C164.892 207.301 165.104 206.58 165.104 205.733V204.317ZM50.0065 194.623C49.1108 194.623 48.3413 194.906 47.6998 195.475C47.0584 196.044 46.569 196.856 46.2301 197.909C45.8913 198.95 45.7213 200.202 45.7213 201.667C45.7213 203.119 45.8913 204.371 46.2301 205.424C46.569 206.477 47.0584 207.289 47.6998 207.858C48.3413 208.427 49.1108 208.71 50.0065 208.71C50.8534 208.71 51.5856 208.426 52.2027 207.858C52.82 207.289 53.2984 206.477 53.6373 205.424C53.9761 204.371 54.1451 203.119 54.1451 201.667C54.1451 200.202 53.9761 198.949 53.6373 197.909C53.2984 196.856 52.82 196.044 52.2027 195.475C51.5856 194.906 50.8534 194.623 50.0065 194.623ZM130.767 195.058C129.847 195.058 129.054 195.324 128.388 195.857C127.735 196.377 127.226 197.134 126.863 198.126C126.512 199.107 126.337 200.287 126.337 201.667C126.337 203.022 126.512 204.197 126.863 205.189C127.226 206.169 127.735 206.931 128.388 207.476C129.054 208.009 129.847 208.275 130.767 208.275C131.687 208.275 132.468 208.015 133.109 207.495C133.763 206.962 134.258 206.205 134.597 205.225C134.948 204.233 135.125 203.046 135.125 201.667C135.125 200.287 134.948 199.107 134.597 198.126C134.258 197.134 133.762 196.377 133.109 195.857C132.468 195.324 131.687 195.058 130.767 195.058ZM53.8863 162.28C55.8903 162.28 57.6244 162.644 59.0875 163.371C60.5593 164.089 61.6986 165.109 62.5055 166.43C62.9931 167.223 63.3357 168.101 63.5318 169.062C63.7534 170.148 62.8278 171.059 61.7193 171.059H58.7467C57.7123 171.059 56.9292 170.225 56.4645 169.301C56.3325 169.039 56.1732 168.809 55.9879 168.611C55.4736 168.044 54.8084 167.76 53.9928 167.76C53.3544 167.76 52.7958 167.946 52.317 168.319C51.8383 168.682 51.4658 169.236 51.1998 169.981C50.9338 170.717 50.8004 171.644 50.8004 172.761C50.8004 173.878 50.9339 174.809 51.1998 175.554C51.4658 176.29 51.8383 176.845 52.317 177.217C52.7957 177.581 53.3545 177.762 53.9928 177.762C54.5336 177.762 55.0126 177.638 55.4293 177.39C55.846 177.133 56.1829 176.761 56.44 176.273C56.4448 176.264 56.4501 176.255 56.4547 176.247C56.9405 175.32 57.7287 174.464 58.775 174.463H61.6998C62.8159 174.463 63.7418 175.386 63.5191 176.48C63.3191 177.462 62.977 178.36 62.4928 179.172C61.6947 180.502 60.5633 181.531 59.1002 182.258C57.646 182.985 55.908 183.349 53.8863 183.349C51.6696 183.349 49.7713 182.911 48.193 182.033C46.6147 181.146 45.4045 179.913 44.5621 178.334C43.7198 176.747 43.2985 174.907 43.2984 172.815C43.2985 170.722 43.7198 168.886 44.5621 167.308C45.4045 165.721 46.6148 164.488 48.193 163.61C49.7713 162.723 51.6696 162.28 53.8863 162.28ZM76.3893 162.28C77.9319 162.28 79.3286 162.519 80.5787 162.998C81.829 163.476 82.8981 164.173 83.7848 165.086C84.6715 165.991 85.3548 167.091 85.8336 168.385C86.3124 169.68 86.5514 171.139 86.5514 172.761C86.5514 173.701 85.7893 174.463 84.8492 174.463H73.569C73.3928 174.464 73.2497 174.606 73.2496 174.783C73.2496 175.439 73.3879 176.024 73.6627 176.539C73.9376 177.053 74.3321 177.457 74.8463 177.75C75.3605 178.042 75.9817 178.188 76.7086 178.188C77.2138 178.188 77.6748 178.117 78.0914 177.975C78.5169 177.833 78.8808 177.63 79.1822 177.364C79.7151 176.878 80.3263 176.379 81.0475 176.379H84.2008C85.4332 176.38 86.3938 177.509 85.8541 178.617C85.6001 179.138 85.2871 179.625 84.9156 180.077C84.0555 181.114 82.9155 181.921 81.4967 182.498C80.0868 183.065 78.4371 183.349 76.5484 183.349C74.3673 183.349 72.4871 182.933 70.9088 182.099C69.3394 181.257 68.1292 180.05 67.2779 178.481C66.4356 176.903 66.0143 175.014 66.0143 172.815C66.0143 170.705 66.4394 168.859 67.2906 167.281C68.1419 165.703 69.3435 164.474 70.8951 163.596C72.4469 162.718 74.2789 162.28 76.3893 162.28ZM110.261 162.28C111.804 162.28 113.201 162.519 114.451 162.998C115.701 163.476 116.77 164.173 117.657 165.086C118.544 165.991 119.227 167.091 119.706 168.385C120.184 169.68 120.423 171.139 120.423 172.761C120.423 173.701 119.661 174.463 118.721 174.463H107.441C107.265 174.464 107.122 174.606 107.122 174.783C107.122 175.439 107.26 176.024 107.535 176.539C107.81 177.053 108.204 177.457 108.718 177.75C109.233 178.042 109.854 178.188 110.581 178.188C111.086 178.188 111.547 178.117 111.963 177.975C112.389 177.833 112.753 177.63 113.054 177.364C113.587 176.878 114.198 176.379 114.92 176.379H118.073C119.305 176.38 120.266 177.509 119.726 178.617C119.472 179.138 119.159 179.625 118.788 180.077C117.928 181.114 116.788 181.921 115.369 182.498C113.959 183.065 112.309 183.349 110.421 183.349C108.239 183.349 106.359 182.933 104.781 182.099C103.212 181.257 102.001 180.05 101.15 178.481C100.308 176.903 99.8864 175.014 99.8863 172.815C99.8863 170.705 100.311 168.859 101.163 167.281C102.014 165.702 103.216 164.474 104.768 163.596C106.32 162.719 108.151 162.28 110.261 162.28ZM132.412 162.28C135.364 162.28 137.693 162.892 139.395 164.116C140.525 164.924 141.302 165.936 141.724 167.154C142.097 168.228 141.149 169.197 140.012 169.197H136.521C135.852 169.197 135.333 168.628 134.899 168.119C134.642 167.817 134.309 167.587 133.901 167.427C133.502 167.259 133.058 167.174 132.571 167.174C131.942 167.174 131.4 167.29 130.948 167.52C130.496 167.75 130.274 168.079 130.283 168.504C130.274 168.806 130.403 169.086 130.669 169.343C130.943 169.6 131.472 169.799 132.252 169.941L136.402 170.686C138.495 171.067 140.051 171.71 141.071 172.615C142.099 173.51 142.618 174.712 142.627 176.219C142.618 177.673 142.184 178.937 141.324 180.01C140.473 181.074 139.306 181.9 137.825 182.485C136.353 183.061 134.672 183.349 132.784 183.349C129.663 183.349 127.219 182.711 125.455 181.434C124.34 180.624 123.539 179.649 123.049 178.509C122.583 177.424 123.539 176.379 124.72 176.379H128.084C129.073 176.379 129.864 177.234 130.665 177.815C130.696 177.838 130.729 177.86 130.762 177.882C131.312 178.228 132.004 178.401 132.838 178.401C133.511 178.401 134.065 178.286 134.5 178.055C134.943 177.825 135.169 177.496 135.178 177.071C135.169 176.681 134.974 176.371 134.593 176.14C134.221 175.91 133.635 175.723 132.838 175.582L129.219 174.943C127.136 174.579 125.574 173.887 124.537 172.868C123.499 171.848 122.985 170.535 122.994 168.93C122.985 167.512 123.357 166.31 124.111 165.326C124.874 164.333 125.961 163.579 127.371 163.065C128.789 162.542 130.47 162.28 132.412 162.28ZM180.909 162.28C182.372 162.28 183.685 162.453 184.846 162.798C186.008 163.135 186.996 163.61 187.812 164.222C188.628 164.825 189.249 165.534 189.674 166.35C190.109 167.157 190.326 168.035 190.326 168.984V180.977C190.326 182.082 189.43 182.977 188.326 182.977H184.899C184.106 182.977 183.463 182.334 183.463 181.541V180.204C183.462 180.149 183.418 180.104 183.363 180.104C183.326 180.104 183.293 180.125 183.275 180.157C182.873 180.895 182.385 181.494 181.813 181.953C181.237 182.422 180.576 182.764 179.832 182.977C179.096 183.19 178.284 183.296 177.397 183.296C176.094 183.296 174.941 183.083 173.939 182.658C172.946 182.223 172.165 181.567 171.597 180.689C171.03 179.811 170.747 178.694 170.747 177.337C170.747 176.22 170.937 175.266 171.318 174.477C171.699 173.679 172.232 173.027 172.915 172.522C173.597 172.017 174.391 171.631 175.296 171.365C176.209 171.099 177.194 170.926 178.249 170.846C179.392 170.758 180.31 170.651 181.002 170.527C181.702 170.394 182.208 170.211 182.518 169.981C182.828 169.742 182.984 169.427 182.984 169.037V168.984C182.984 168.452 182.779 168.044 182.372 167.76C181.964 167.477 181.441 167.334 180.802 167.334C180.102 167.335 179.53 167.49 179.087 167.8C178.309 168.34 177.598 169.197 176.651 169.197H173.693C172.532 169.197 171.588 168.188 172.017 167.11C172.202 166.645 172.439 166.197 172.728 165.765C173.438 164.71 174.471 163.867 175.828 163.238C177.184 162.599 178.878 162.28 180.909 162.28ZM152.113 157.651C153.217 157.651 154.113 158.546 154.113 159.651V160.79C154.113 161.699 154.804 162.446 155.689 162.537L156.048 162.554C156.934 162.644 157.625 163.392 157.625 164.301V166.11C157.625 167.019 156.934 167.767 156.048 167.857L155.689 167.875C154.804 167.965 154.113 168.713 154.113 169.622V176.406C154.113 176.689 154.162 176.929 154.259 177.124C154.357 177.31 154.508 177.452 154.712 177.549C154.915 177.638 155.177 177.683 155.496 177.683C155.717 177.683 155.975 177.656 156.267 177.603C156.631 177.539 156.995 177.772 157.07 178.134L157.703 181.205C157.869 182.011 157.388 182.804 156.587 182.99C155.984 183.132 155.265 183.225 154.432 183.269C152.748 183.358 151.333 183.185 150.189 182.75C149.045 182.307 148.184 181.611 147.608 180.663C147.032 179.714 146.752 178.525 146.77 177.097V169.169C146.77 168.45 146.187 167.866 145.467 167.866C144.748 167.866 144.164 167.283 144.164 166.563V163.849C144.164 163.129 144.748 162.545 145.467 162.545C146.187 162.545 146.77 161.962 146.77 161.243V159.651C146.77 158.546 147.666 157.651 148.77 157.651H152.113ZM94.8902 155.735C95.9948 155.735 96.8902 156.63 96.8902 157.735V180.977C96.8902 182.082 95.9948 182.977 94.8902 182.977H91.5475C90.443 182.977 89.5475 182.082 89.5475 180.977V157.735C89.5475 156.63 90.4431 155.735 91.5475 155.735H94.8902ZM199.176 155.735C200.281 155.735 201.176 156.63 201.176 157.735V180.977C201.176 182.082 200.281 182.977 199.176 182.977H195.835C194.73 182.977 193.835 182.082 193.835 180.977V157.735C193.835 156.63 194.73 155.735 195.835 155.735H199.176ZM165.963 162.545C167.067 162.545 167.962 163.441 167.963 164.545V180.976C167.963 182.081 167.067 182.976 165.963 182.976H162.621C161.516 182.976 160.621 182.081 160.621 180.976V164.545C160.621 163.441 161.516 162.546 162.621 162.545H165.963ZM182.412 174.264C182.199 174.335 181.968 174.401 181.72 174.463C181.481 174.525 181.224 174.584 180.949 174.637C180.683 174.69 180.403 174.738 180.111 174.783C179.544 174.871 179.077 175.018 178.713 175.222C178.359 175.417 178.093 175.661 177.916 175.954C177.747 176.237 177.663 176.557 177.663 176.912C177.663 177.479 177.863 177.914 178.261 178.215C178.66 178.517 179.171 178.667 179.792 178.667C180.35 178.667 180.873 178.551 181.361 178.321C181.857 178.09 182.261 177.758 182.571 177.324C182.881 176.889 183.037 176.361 183.037 175.741V174.704C183.037 174.386 182.714 174.167 182.412 174.264ZM76.5484 167.441C75.9545 167.441 75.4091 167.57 74.9127 167.827C74.4163 168.075 74.0169 168.421 73.7154 168.864C73.2192 169.616 73.995 170.42 74.8961 170.42H78.1647C79.061 170.42 79.836 169.626 79.3424 168.877C79.0587 168.425 78.6726 168.075 78.1852 167.827C77.7064 167.57 77.1602 167.441 76.5484 167.441ZM110.421 167.441C109.827 167.441 109.281 167.57 108.785 167.827C108.288 168.075 107.889 168.421 107.588 168.864C107.091 169.616 107.867 170.42 108.768 170.42H112.037C112.933 170.42 113.708 169.626 113.214 168.877C112.931 168.425 112.545 168.075 112.057 167.827C111.578 167.57 111.032 167.441 110.421 167.441ZM164.292 153.713C165.294 153.713 166.145 154.042 166.845 154.698C167.555 155.354 167.91 156.143 167.91 157.065C167.91 157.987 167.555 158.777 166.845 159.433C166.145 160.089 165.293 160.417 164.292 160.417C163.299 160.417 162.447 160.089 161.738 159.433C161.029 158.777 160.673 157.987 160.673 157.065C160.674 156.143 161.029 155.354 161.738 154.698C162.447 154.042 163.299 153.713 164.292 153.713Z" fill="#ECF2F4"/>
</svg>
