<svg width="1440" height="829" viewBox="0 0 1440 829" fill="none" xmlns="http://www.w3.org/2000/svg" xmlns:xlink="http://www.w3.org/1999/xlink">
<rect width="1440" height="829" fill="url(#pattern0_32_399)" fill-opacity="0.1"/>
<g filter="url(#filter0_d_32_399)">
<path d="M204.32 685.644C194.218 688.706 183.16 681.333 180.183 671.511C183.16 681.333 178.055 693.604 167.954 696.666C178.055 693.604 189.114 700.977 191.495 708.834C189.114 700.977 194.218 688.706 204.32 685.644Z" fill="#9A52A3" fill-opacity="0.75" shape-rendering="crispEdges"/>
</g>
<g filter="url(#filter1_d_32_399)">
<path d="M865.654 248.752C857.52 246.826 852.885 237.376 854.758 229.467C852.885 237.376 844.505 243.744 836.371 241.818C844.505 243.744 849.14 253.194 847.642 259.521C849.14 253.194 857.52 246.826 865.654 248.752Z" fill="#9A52A3" fill-opacity="0.75" shape-rendering="crispEdges"/>
</g>
<g filter="url(#filter2_d_32_399)">
<path d="M1043.01 206.894C1040.49 210.98 1034.5 211.802 1030.53 209.355C1034.5 211.802 1036.46 217.518 1033.95 221.605C1036.46 217.518 1042.45 216.696 1045.63 218.653C1042.45 216.696 1040.49 210.98 1043.01 206.894Z" fill="#9A52A3" fill-opacity="0.75" shape-rendering="crispEdges"/>
</g>
<g filter="url(#filter3_d_32_399)">
<path d="M936.899 526.378C935.28 535.702 924.919 541.588 915.853 540.015C924.919 541.588 932.691 550.621 931.072 559.945C932.691 550.621 943.051 544.735 950.304 545.994C943.051 544.735 935.28 535.702 936.899 526.378Z" fill="#9A52A3" fill-opacity="0.75" shape-rendering="crispEdges"/>
</g>
<g filter="url(#filter4_d_32_399)">
<path d="M1009.16 345.316C1011.03 349.358 1008.6 354.412 1004.67 356.233C1008.6 354.412 1014.03 355.825 1015.9 359.867C1014.03 355.825 1016.46 350.771 1019.61 349.314C1016.46 350.771 1011.03 349.358 1009.16 345.316Z" fill="#9A52A3" fill-opacity="0.75" shape-rendering="crispEdges"/>
</g>
<g filter="url(#filter5_d_32_399)">
<path d="M1261.87 452.925C1255.58 457.07 1246.51 454.265 1242.48 448.145C1246.51 454.265 1245.51 463.701 1239.21 467.846C1245.51 463.701 1254.57 466.506 1257.8 471.402C1254.57 466.506 1255.58 457.07 1261.87 452.925Z" fill="#9A52A3" fill-opacity="0.75" shape-rendering="crispEdges"/>
</g>
<g filter="url(#filter6_d_32_399)">
<path d="M445.99 644.047C440.309 645.352 434.495 640.874 433.225 635.35C434.495 640.874 431.22 647.442 425.539 648.747C431.22 647.442 437.034 651.92 438.05 656.339C437.034 651.92 440.309 645.352 445.99 644.047Z" fill="#9A52A3" fill-opacity="0.75" shape-rendering="crispEdges"/>
</g>
<g filter="url(#filter7_d_32_399)">
<path d="M552.178 371.929C544.93 366.718 544.197 355.502 549.264 348.454C544.197 355.502 533.332 358.381 526.083 353.17C533.332 358.381 534.064 369.597 530.011 375.235C534.064 369.597 544.93 366.718 552.178 371.929Z" fill="#9A52A3" fill-opacity="0.75" shape-rendering="crispEdges"/>
</g>
<g filter="url(#filter8_d_32_399)">
<path d="M646.627 612.736C639.363 611.481 634.772 603.414 635.992 596.351C634.772 603.414 627.741 609.472 620.477 608.217C627.741 609.472 632.331 617.539 631.355 623.189C632.331 617.539 639.363 611.481 646.627 612.736Z" fill="#9A52A3" fill-opacity="0.75" shape-rendering="crispEdges"/>
</g>
<g filter="url(#filter9_d_32_399)">
<path d="M530.47 316.069C527.062 315.48 524.909 311.696 525.481 308.383C524.909 311.696 521.61 314.538 518.203 313.95C521.61 314.538 523.764 318.323 523.306 320.973C523.764 318.323 527.062 315.48 530.47 316.069Z" fill="#9A52A3" fill-opacity="0.75" shape-rendering="crispEdges"/>
</g>
<g filter="url(#filter10_d_32_399)">
<path d="M220.995 354.169C215.766 360.427 205.498 360.349 199.413 355.264C205.498 360.349 207.398 370.439 202.169 376.697C207.398 370.439 217.666 370.518 222.534 374.586C217.666 370.518 215.766 360.427 220.995 354.169Z" fill="#9A52A3" fill-opacity="0.75" shape-rendering="crispEdges"/>
</g>
<g filter="url(#filter11_d_32_399)">
<path d="M271.136 523.305C270.98 525.142 269.068 526.459 267.282 526.306C269.068 526.459 270.729 528.081 270.572 529.918C270.729 528.081 272.64 526.764 274.069 526.886C272.64 526.764 270.98 525.142 271.136 523.305Z" fill="#9A52A3" fill-opacity="0.75" shape-rendering="crispEdges"/>
</g>
<defs>
<filter id="filter0_d_32_399" x="152.954" y="656.511" width="66.3665" height="67.3235" filterUnits="userSpaceOnUse" color-interpolation-filters="sRGB">
<feFlood flood-opacity="0" result="BackgroundImageFix"/>
<feColorMatrix in="SourceAlpha" type="matrix" values="0 0 0 0 0 0 0 0 0 0 0 0 0 0 0 0 0 0 127 0" result="hardAlpha"/>
<feOffset/>
<feGaussianBlur stdDeviation="7.5"/>
<feComposite in2="hardAlpha" operator="out"/>
<feColorMatrix type="matrix" values="0 0 0 0 0.603922 0 0 0 0 0.321569 0 0 0 0 0.639216 0 0 0 0.5 0"/>
<feBlend mode="normal" in2="BackgroundImageFix" result="effect1_dropShadow_32_399"/>
<feBlend mode="normal" in="SourceGraphic" in2="effect1_dropShadow_32_399" result="shape"/>
</filter>
<filter id="filter1_d_32_399" x="821.371" y="214.467" width="59.283" height="60.0537" filterUnits="userSpaceOnUse" color-interpolation-filters="sRGB">
<feFlood flood-opacity="0" result="BackgroundImageFix"/>
<feColorMatrix in="SourceAlpha" type="matrix" values="0 0 0 0 0 0 0 0 0 0 0 0 0 0 0 0 0 0 127 0" result="hardAlpha"/>
<feOffset/>
<feGaussianBlur stdDeviation="7.5"/>
<feComposite in2="hardAlpha" operator="out"/>
<feColorMatrix type="matrix" values="0 0 0 0 0.603922 0 0 0 0 0.321569 0 0 0 0 0.639216 0 0 0 0.5 0"/>
<feBlend mode="normal" in2="BackgroundImageFix" result="effect1_dropShadow_32_399"/>
<feBlend mode="normal" in="SourceGraphic" in2="effect1_dropShadow_32_399" result="shape"/>
</filter>
<filter id="filter2_d_32_399" x="1015.53" y="191.894" width="45.0979" height="44.7109" filterUnits="userSpaceOnUse" color-interpolation-filters="sRGB">
<feFlood flood-opacity="0" result="BackgroundImageFix"/>
<feColorMatrix in="SourceAlpha" type="matrix" values="0 0 0 0 0 0 0 0 0 0 0 0 0 0 0 0 0 0 127 0" result="hardAlpha"/>
<feOffset/>
<feGaussianBlur stdDeviation="7.5"/>
<feComposite in2="hardAlpha" operator="out"/>
<feColorMatrix type="matrix" values="0 0 0 0 0.603922 0 0 0 0 0.321569 0 0 0 0 0.639216 0 0 0 0.5 0"/>
<feBlend mode="normal" in2="BackgroundImageFix" result="effect1_dropShadow_32_399"/>
<feBlend mode="normal" in="SourceGraphic" in2="effect1_dropShadow_32_399" result="shape"/>
</filter>
<filter id="filter3_d_32_399" x="900.853" y="511.378" width="64.4507" height="63.5674" filterUnits="userSpaceOnUse" color-interpolation-filters="sRGB">
<feFlood flood-opacity="0" result="BackgroundImageFix"/>
<feColorMatrix in="SourceAlpha" type="matrix" values="0 0 0 0 0 0 0 0 0 0 0 0 0 0 0 0 0 0 127 0" result="hardAlpha"/>
<feOffset/>
<feGaussianBlur stdDeviation="7.5"/>
<feComposite in2="hardAlpha" operator="out"/>
<feColorMatrix type="matrix" values="0 0 0 0 0.603922 0 0 0 0 0.321569 0 0 0 0 0.639216 0 0 0 0.5 0"/>
<feBlend mode="normal" in2="BackgroundImageFix" result="effect1_dropShadow_32_399"/>
<feBlend mode="normal" in="SourceGraphic" in2="effect1_dropShadow_32_399" result="shape"/>
</filter>
<filter id="filter4_d_32_399" x="989.672" y="330.316" width="44.9335" height="44.5505" filterUnits="userSpaceOnUse" color-interpolation-filters="sRGB">
<feFlood flood-opacity="0" result="BackgroundImageFix"/>
<feColorMatrix in="SourceAlpha" type="matrix" values="0 0 0 0 0 0 0 0 0 0 0 0 0 0 0 0 0 0 127 0" result="hardAlpha"/>
<feOffset/>
<feGaussianBlur stdDeviation="7.5"/>
<feComposite in2="hardAlpha" operator="out"/>
<feColorMatrix type="matrix" values="0 0 0 0 0.603922 0 0 0 0 0.321569 0 0 0 0 0.639216 0 0 0 0.5 0"/>
<feBlend mode="normal" in2="BackgroundImageFix" result="effect1_dropShadow_32_399"/>
<feBlend mode="normal" in="SourceGraphic" in2="effect1_dropShadow_32_399" result="shape"/>
</filter>
<filter id="filter5_d_32_399" x="1224.21" y="433.145" width="52.6611" height="53.2574" filterUnits="userSpaceOnUse" color-interpolation-filters="sRGB">
<feFlood flood-opacity="0" result="BackgroundImageFix"/>
<feColorMatrix in="SourceAlpha" type="matrix" values="0 0 0 0 0 0 0 0 0 0 0 0 0 0 0 0 0 0 127 0" result="hardAlpha"/>
<feOffset/>
<feGaussianBlur stdDeviation="7.5"/>
<feComposite in2="hardAlpha" operator="out"/>
<feColorMatrix type="matrix" values="0 0 0 0 0.603922 0 0 0 0 0.321569 0 0 0 0 0.639216 0 0 0 0.5 0"/>
<feBlend mode="normal" in2="BackgroundImageFix" result="effect1_dropShadow_32_399"/>
<feBlend mode="normal" in="SourceGraphic" in2="effect1_dropShadow_32_399" result="shape"/>
</filter>
<filter id="filter6_d_32_399" x="410.539" y="620.35" width="50.4506" height="50.9888" filterUnits="userSpaceOnUse" color-interpolation-filters="sRGB">
<feFlood flood-opacity="0" result="BackgroundImageFix"/>
<feColorMatrix in="SourceAlpha" type="matrix" values="0 0 0 0 0 0 0 0 0 0 0 0 0 0 0 0 0 0 127 0" result="hardAlpha"/>
<feOffset/>
<feGaussianBlur stdDeviation="7.5"/>
<feComposite in2="hardAlpha" operator="out"/>
<feColorMatrix type="matrix" values="0 0 0 0 0.603922 0 0 0 0 0.321569 0 0 0 0 0.639216 0 0 0 0.5 0"/>
<feBlend mode="normal" in2="BackgroundImageFix" result="effect1_dropShadow_32_399"/>
<feBlend mode="normal" in="SourceGraphic" in2="effect1_dropShadow_32_399" result="shape"/>
</filter>
<filter id="filter7_d_32_399" x="511.083" y="333.454" width="56.095" height="56.7816" filterUnits="userSpaceOnUse" color-interpolation-filters="sRGB">
<feFlood flood-opacity="0" result="BackgroundImageFix"/>
<feColorMatrix in="SourceAlpha" type="matrix" values="0 0 0 0 0 0 0 0 0 0 0 0 0 0 0 0 0 0 127 0" result="hardAlpha"/>
<feOffset/>
<feGaussianBlur stdDeviation="7.5"/>
<feComposite in2="hardAlpha" operator="out"/>
<feColorMatrix type="matrix" values="0 0 0 0 0.603922 0 0 0 0 0.321569 0 0 0 0 0.639216 0 0 0 0.5 0"/>
<feBlend mode="normal" in2="BackgroundImageFix" result="effect1_dropShadow_32_399"/>
<feBlend mode="normal" in="SourceGraphic" in2="effect1_dropShadow_32_399" result="shape"/>
</filter>
<filter id="filter8_d_32_399" x="605.477" y="581.351" width="56.1497" height="56.8379" filterUnits="userSpaceOnUse" color-interpolation-filters="sRGB">
<feFlood flood-opacity="0" result="BackgroundImageFix"/>
<feColorMatrix in="SourceAlpha" type="matrix" values="0 0 0 0 0 0 0 0 0 0 0 0 0 0 0 0 0 0 127 0" result="hardAlpha"/>
<feOffset/>
<feGaussianBlur stdDeviation="7.5"/>
<feComposite in2="hardAlpha" operator="out"/>
<feColorMatrix type="matrix" values="0 0 0 0 0.603922 0 0 0 0 0.321569 0 0 0 0 0.639216 0 0 0 0.5 0"/>
<feBlend mode="normal" in2="BackgroundImageFix" result="effect1_dropShadow_32_399"/>
<feBlend mode="normal" in="SourceGraphic" in2="effect1_dropShadow_32_399" result="shape"/>
</filter>
<filter id="filter9_d_32_399" x="503.203" y="293.383" width="42.2669" height="42.5897" filterUnits="userSpaceOnUse" color-interpolation-filters="sRGB">
<feFlood flood-opacity="0" result="BackgroundImageFix"/>
<feColorMatrix in="SourceAlpha" type="matrix" values="0 0 0 0 0 0 0 0 0 0 0 0 0 0 0 0 0 0 127 0" result="hardAlpha"/>
<feOffset/>
<feGaussianBlur stdDeviation="7.5"/>
<feComposite in2="hardAlpha" operator="out"/>
<feColorMatrix type="matrix" values="0 0 0 0 0.603922 0 0 0 0 0.321569 0 0 0 0 0.639216 0 0 0 0.5 0"/>
<feBlend mode="normal" in2="BackgroundImageFix" result="effect1_dropShadow_32_399"/>
<feBlend mode="normal" in="SourceGraphic" in2="effect1_dropShadow_32_399" result="shape"/>
</filter>
<filter id="filter10_d_32_399" x="184.413" y="339.169" width="53.1206" height="52.5278" filterUnits="userSpaceOnUse" color-interpolation-filters="sRGB">
<feFlood flood-opacity="0" result="BackgroundImageFix"/>
<feColorMatrix in="SourceAlpha" type="matrix" values="0 0 0 0 0 0 0 0 0 0 0 0 0 0 0 0 0 0 127 0" result="hardAlpha"/>
<feOffset/>
<feGaussianBlur stdDeviation="7.5"/>
<feComposite in2="hardAlpha" operator="out"/>
<feColorMatrix type="matrix" values="0 0 0 0 0.603922 0 0 0 0 0.321569 0 0 0 0 0.639216 0 0 0 0.5 0"/>
<feBlend mode="normal" in2="BackgroundImageFix" result="effect1_dropShadow_32_399"/>
<feBlend mode="normal" in="SourceGraphic" in2="effect1_dropShadow_32_399" result="shape"/>
</filter>
<filter id="filter11_d_32_399" x="252.282" y="508.305" width="36.7868" height="36.6127" filterUnits="userSpaceOnUse" color-interpolation-filters="sRGB">
<feFlood flood-opacity="0" result="BackgroundImageFix"/>
<feColorMatrix in="SourceAlpha" type="matrix" values="0 0 0 0 0 0 0 0 0 0 0 0 0 0 0 0 0 0 127 0" result="hardAlpha"/>
<feOffset/>
<feGaussianBlur stdDeviation="7.5"/>
<feComposite in2="hardAlpha" operator="out"/>
<feColorMatrix type="matrix" values="0 0 0 0 0.603922 0 0 0 0 0.321569 0 0 0 0 0.639216 0 0 0 0.5 0"/>
<feBlend mode="normal" in2="BackgroundImageFix" result="effect1_dropShadow_32_399"/>
<feBlend mode="normal" in="SourceGraphic" in2="effect1_dropShadow_32_399" result="shape"/>
</filter>
<pattern id="pattern0_32_399" patternUnits="userSpaceOnUse" viewBox="-249 189.097 308.031 153.41" width="13.904193368171036%" height="12.028532978967634%" x="672.328" y="366.812" patternContentUnits="objectBoundingBox">
<g id="pattern0_32_399_inner">
<path d="M-175.853 112.135C-178.064 111.282 -180.688 112.816 -181.543 115.031C-180.688 112.816 -181.601 109.917 -183.812 109.064C-181.601 109.917 -178.977 108.384 -178.293 106.612C-178.977 108.384 -178.064 111.282 -175.853 112.135Z" fill="#9A52A3"/>
<path d="M-195.896 129.267C-205.743 125.467 -217.317 132.001 -221.012 141.576C-217.317 132.001 -221.5 119.386 -231.347 115.586C-221.5 119.386 -209.927 112.851 -206.97 105.192C-209.927 112.851 -205.743 125.467 -195.896 129.267Z" fill="#9A52A3"/>
<path d="M-209.716 90.0849C-215.417 87.8847 -222.157 91.7712 -224.336 97.418C-222.157 91.7712 -224.539 84.3643 -230.24 82.1641C-224.539 84.3644 -217.799 80.4777 -216.055 75.9604C-217.799 80.4778 -215.417 87.8847 -209.716 90.0849Z" fill="#9A52A3"/>
<path d="M-127.72 51.6887C-129.649 53.0653 -129.812 56.0996 -128.432 58.0327C-129.812 56.0996 -132.735 55.2678 -134.663 56.6443C-132.735 55.2678 -132.571 52.2334 -133.675 50.687C-132.571 52.2335 -129.649 53.0653 -127.72 51.6887Z" fill="#9A52A3"/>
<path d="M-124.442 77.8506C-133.034 83.9828 -133.945 97.2421 -127.982 105.596C-133.945 97.2421 -146.78 93.7942 -155.372 99.9264C-146.78 93.7941 -145.869 80.5348 -150.639 73.8519C-145.869 80.5348 -133.034 83.9828 -124.442 77.8506Z" fill="#9A52A3"/>
<path d="M-164.764 67.8325C-169.738 71.3827 -170.201 79.1493 -166.685 84.0758C-170.201 79.1493 -177.697 77.063 -182.671 80.6132C-177.697 77.0629 -177.234 69.2963 -180.047 65.3551C-177.234 69.2963 -169.738 71.3827 -164.764 67.8325Z" fill="#9A52A3"/>
<path d="M-128.355 163.026C-130.7 162.689 -132.239 160.069 -131.902 157.718C-132.239 160.069 -134.453 162.15 -136.799 161.813C-134.453 162.15 -132.914 164.77 -133.184 166.651C-132.914 164.77 -130.7 162.689 -128.355 163.026Z" fill="#9A52A3"/>
<path d="M-137.461 138.281C-147.91 136.781 -154.81 125.422 -153.351 115.263C-154.81 125.422 -164.627 134.381 -175.076 132.881C-164.627 134.381 -157.727 145.74 -158.894 153.867C-157.727 145.74 -147.91 136.781 -137.461 138.281Z" fill="#9A52A3"/>
<path d="M-168.675 165.703C-174.724 164.834 -178.703 158.149 -177.843 152.157C-178.703 158.149 -184.403 163.445 -190.452 162.576C-184.403 163.445 -180.424 170.131 -181.112 174.924C-180.424 170.131 -174.724 164.834 -168.675 165.703Z" fill="#9A52A3"/>
</g>
<use xlink:href="#pattern0_32_399_inner" transform="translate(0 153.41)"/>
<use xlink:href="#pattern0_32_399_inner" transform="translate(154.016 76.705)"/>
<use xlink:href="#pattern0_32_399_inner" transform="translate(154.016 230.115)"/>
</pattern></defs>
</svg>
