<svg width="155" height="196" viewBox="0 0 155 196" fill="none" xmlns="http://www.w3.org/2000/svg">
<path d="M78 178.057C82.4999 178.554 86 182.368 86 187C86 191.971 81.9706 196 77 196C72.0294 196 68 191.971 68 187C68 182.368 71.5001 178.554 76 178.057V100H78V178.057Z" fill="#863B87"/>
<circle cx="89.8864" cy="89.1591" r="3.19984" fill="#863B87"/>
<path d="M52.6523 26.3262L42.9072 9.4541L86.25 32.1436L80.7236 18.7627L136.735 56.7812C147.525 63.1961 154.756 74.9686 154.756 88.4316C154.756 108.755 138.28 125.23 117.957 125.23C108.116 125.23 99.1769 121.367 92.5742 115.074L40.5801 72.4326L55.415 73.8867L20.7988 38.5439L40.5801 43.3428L0 0L52.6523 26.3262ZM117.957 58.3242C117.178 58.3242 116.406 58.354 115.642 58.4121C115.387 58.4315 115.133 58.4538 114.88 58.4795C112.603 58.7108 110.4 59.1961 108.302 59.9062C107.602 60.143 106.914 60.4047 106.238 60.6904C105.788 60.8808 105.344 61.0817 104.905 61.293C104.247 61.6101 103.602 61.9509 102.972 62.3135C102.551 62.5551 102.138 62.8064 101.73 63.0674C101.527 63.198 101.324 63.3305 101.124 63.4658C100.724 63.7363 100.331 64.0168 99.9443 64.3057C93.3126 69.2652 88.7955 76.8947 87.9834 85.6006C87.9438 86.0252 87.9105 86.4522 87.8887 86.8818C87.8757 87.1385 87.8659 87.396 87.8594 87.6543C87.8528 87.9126 87.8496 88.1717 87.8496 88.4316C87.8496 88.7092 87.8539 88.9859 87.8613 89.2617C88.0072 94.6516 89.5702 99.6876 92.1904 104.012C92.4605 104.457 92.7421 104.895 93.0342 105.325C93.679 106.275 94.3758 107.186 95.1221 108.054C95.639 108.655 96.18 109.235 96.7422 109.793C102.185 115.198 109.68 118.539 117.957 118.539C134.585 118.539 148.064 105.06 148.064 88.4316C148.064 77.0931 141.796 67.2199 132.536 62.085C132.19 61.893 131.84 61.7078 131.485 61.5293C131.403 61.4879 131.321 61.4469 131.238 61.4062C130.886 61.2326 130.529 61.0654 130.169 60.9053C130.065 60.8593 129.962 60.8144 129.857 60.7695C129.752 60.7241 129.646 60.6791 129.54 60.6348C129.221 60.5017 128.9 60.3742 128.575 60.252C128.408 60.1889 128.24 60.1275 128.071 60.0674C127.747 59.9517 127.42 59.8411 127.091 59.7363C126.979 59.7008 126.867 59.6661 126.755 59.6318C125.949 59.3859 125.128 59.1727 124.295 58.9941C124.129 58.9587 123.963 58.9244 123.797 58.8916C123.437 58.8209 123.076 58.756 122.712 58.6982C122.621 58.6838 122.53 58.6699 122.438 58.6562C121.996 58.5902 121.55 58.5329 121.101 58.4863C121.064 58.4825 121.027 58.4783 120.99 58.4746C120.526 58.4281 120.058 58.3933 119.587 58.3682C119.539 58.3656 119.492 58.3627 119.444 58.3604C118.952 58.3364 118.456 58.3242 117.957 58.3242Z" fill="#863B87"/>
<path d="M77.3254 50.3639L70.2824 38.1276L101.609 54.5836L97.6145 44.8785L117.177 58.3346C100.91 58.7486 87.8498 72.0653 87.8498 88.4323C87.8499 93.5223 89.115 98.3165 91.3449 102.52L68.5998 83.8024L79.3225 84.858L54.3029 59.2242L68.5998 62.7057L39.2707 31.2711L77.3254 50.3639Z" fill="url(#paint0_linear_21_198)"/>
<circle cx="112.285" cy="106.322" r="3.49073" fill="#863B87"/>
<circle cx="139.629" cy="104.577" r="5.2361" fill="#863B87"/>
<circle cx="128.575" cy="76.9415" r="2.90894" fill="#863B87"/>
<circle cx="114.903" cy="78.6869" r="2.32715" fill="#863B87"/>
<defs>
<linearGradient id="paint0_linear_21_198" x1="28.5513" y1="42.0347" x2="117.179" y2="93.2018" gradientUnits="userSpaceOnUse">
<stop stop-color="#863B87"/>
<stop offset="0.5" stop-color="#4C175A"/>
<stop offset="1" stop-color="#27214F"/>
</linearGradient>
</defs>
</svg>
