<svg width="105" height="67" viewBox="0 0 105 67" fill="none" xmlns="http://www.w3.org/2000/svg">
<path d="M12.8058 1.24678C22.4242 -0.418582 82.4531 -0.413902 92.0754 1.24678C95.3488 1.80354 98.4235 3.48511 100.228 5.64521C106.493 14.61 107.026 55.0371 99.2023 62.1462C97.2309 63.8971 94.7311 65.0906 91.9074 65.5378C61.257 67.6363 20.4405 66.8036 12.5177 65.3142C9.68878 64.7955 7.22584 63.6392 5.42693 61.9597C4.03069 60.6892 2.92127 58.7536 2.06365 56.07C0.0241174 49.8698 -2.62726 11.5924 5.83415 4.45478C7.8423 2.77505 10.1806 1.69405 12.8058 1.24678ZM41.9396 45.739C52.3986 40.8664 62.1775 36.3975 70.0793 32.4147C60.4989 27.7563 52.3985 23.4354 41.9396 18.9626V45.739Z" fill="#9A52A3"/>
</svg>
