<svg width="105" height="105" viewBox="0 0 105 105" fill="none" xmlns="http://www.w3.org/2000/svg">
<path d="M73.7188 0C82.0139 0.00390881 89.9684 3.3007 95.834 9.16602C101.7 15.0314 104.996 22.9854 105 31.2803V73.7148C104.994 82.0095 101.696 89.9625 95.8311 95.8281C89.9662 101.694 82.0136 104.992 73.7188 105H31.2822C22.987 104.994 15.0332 101.696 9.16797 95.8301C3.3027 89.9642 0.00505652 82.0098 0 73.7148V31.2803C0.00636593 22.9863 3.30401 15.0337 9.16895 9.16895C15.0341 3.30408 22.9877 0.00632034 31.2822 0H73.7188ZM31.2822 10.5615C28.5612 10.5609 25.8665 11.0968 23.3525 12.1377C20.8385 13.1787 18.554 14.7049 16.6299 16.6289C14.7058 18.5529 13.1797 20.8376 12.1387 23.3516C11.0978 25.8654 10.5619 28.5595 10.5625 31.2803V73.7148C10.5619 76.4359 11.0978 79.1304 12.1387 81.6445C13.1796 84.1588 14.7058 86.4438 16.6299 88.3682C18.5538 90.2924 20.8377 91.8189 23.3516 92.8604C25.8657 93.9019 28.5609 94.4385 31.2822 94.4385H73.7188C79.2146 94.4371 84.4849 92.2531 88.3711 88.3672C92.2574 84.4811 94.4411 79.2106 94.4424 73.7148L94.4375 31.2803C94.4362 25.786 92.2533 20.517 88.3682 16.6318C84.4829 12.7467 79.2133 10.5629 73.7188 10.5615H31.2822ZM52.5029 25.3525C67.4802 25.3528 79.6513 37.5281 79.6514 52.5C79.6514 67.4719 67.4755 79.6472 52.5029 79.6475C37.5302 79.6475 25.3535 67.4721 25.3535 52.5C25.3535 37.5279 37.5254 25.3525 52.5029 25.3525ZM52.498 35.915C48.0992 35.9157 43.8805 37.6636 40.7705 40.7744C37.6605 43.8852 35.9134 48.1042 35.9141 52.5029C35.9148 56.9014 37.6626 61.1197 40.7734 64.2295C43.8844 67.3394 48.104 69.0856 52.5029 69.085C56.9016 69.0842 61.1196 67.3363 64.2295 64.2256C67.3394 61.1149 69.0865 56.8966 69.0859 52.498C69.0853 48.0994 67.3375 43.8804 64.2266 40.7705C61.1157 37.6608 56.8968 35.9145 52.498 35.915ZM79.708 19.0479C80.9942 19.0488 82.2513 19.4314 83.3203 20.1465C84.3894 20.8617 85.223 21.8779 85.7148 23.0664C86.2065 24.2547 86.3351 25.562 86.084 26.8232C85.8328 28.0847 85.2132 29.2438 84.3037 30.1533C83.3942 31.0628 82.2351 31.6824 80.9736 31.9336C79.7122 32.1847 78.4043 32.0562 77.2158 31.5645C76.0274 31.0727 75.0111 30.2389 74.2959 29.1699C73.5809 28.101 73.1992 26.8436 73.1982 25.5576C73.1984 21.9688 75.6322 19.048 79.708 19.0479Z" fill="#9A52A3"/>
</svg>
