<svg width="50" height="50" viewBox="0 0 50 50" fill="none" xmlns="http://www.w3.org/2000/svg">
<path d="M22.1937 0.178493C10.6703 1.46789 1.40154 11.0095 0.149006 22.6141C-1.10353 34.7345 5.66017 45.5654 15.931 49.6915C16.6825 49.9494 17.434 49.4337 17.434 48.4021V44.276C17.434 44.276 16.432 44.5339 15.1795 44.5339C11.6724 44.5339 10.1693 41.4394 9.9188 39.6342C9.66829 38.6027 9.16728 37.829 8.41575 37.0554C7.66423 36.7975 7.41372 36.7975 7.41372 36.5396C7.41372 36.0239 8.16525 36.0239 8.41575 36.0239C9.9188 36.0239 11.1713 37.829 11.6724 38.6027C12.9249 40.6657 14.4279 41.1815 15.1795 41.1815C16.1815 41.1815 16.933 40.9236 17.434 40.6657C17.6845 38.8606 18.4361 37.0554 19.9391 36.0239C14.1774 34.7345 9.9188 31.382 9.9188 25.7087C9.9188 22.872 11.1713 20.0353 12.9249 17.9722C12.6744 17.4565 12.4239 16.1671 12.4239 14.3619C12.4239 13.3304 12.4239 11.7831 13.1754 10.2358C13.1754 10.2358 16.6825 10.2358 20.1896 13.5883C21.4421 13.0725 23.1957 12.8146 24.9492 12.8146C26.7028 12.8146 28.4564 13.0725 29.9594 13.5883C33.216 10.2358 36.9736 10.2358 36.9736 10.2358C37.4746 11.7831 37.4746 13.3304 37.4746 14.3619C37.4746 16.425 37.2241 17.4565 36.9736 17.9722C38.7272 20.0353 39.9797 22.6141 39.9797 25.7087C39.9797 31.382 35.7211 34.7345 29.9594 36.0239C31.4624 37.3133 32.4645 39.6342 32.4645 41.9551V48.66C32.4645 49.4337 33.216 50.2073 34.218 49.9494C43.4868 46.0812 50 36.7975 50 25.9665C50 10.4937 37.2241 -1.62667 22.1937 0.178493Z" fill="#9A52A3"/>
</svg>
