<svg width="180" height="196" viewBox="0 0 180 196" fill="none" xmlns="http://www.w3.org/2000/svg">
<path d="M108.634 1.93037C209.465 -13.5876 189.75 68.4588 126.26 105.199C31.0437 160.297 -62.8264 93.7993 55.1748 19.7009C-32.9714 76.6997 22.9489 142.723 117.256 91.8991C191.738 47.6916 169.403 -3.8394 108.634 1.93037C100.333 3.20783 91.2154 5.14639 81.2383 7.82587C91.0074 4.63931 100.192 2.73195 108.634 1.93037ZM77.4483 17.3259C134.791 -4.04864 180.286 35.375 123.892 77.6491C152.326 51.0497 144.186 11.0429 81.2403 34.9001C24.8455 56.2746 25.7928 108.048 94.0586 94.069C1.62364 122.773 7.85597 43.2667 77.4483 17.3259ZM109.2 82.3991C109.2 83.5991 110.254 85.0993 111.57 85.0993C110.254 85.0993 109.2 86.5994 109.2 88.0993C109.2 86.5995 108.147 85.0995 106.831 85.0993C108.147 85.0991 109.2 83.599 109.2 82.3991ZM90.7178 39.1755C128.1 29.3772 132.303 58.6256 104.461 76.2243C70.8136 97.4921 36.219 74.3252 69.8662 49.6257C52.8598 68.1503 68.5361 85.2151 96.8184 69.2585C128.386 51.4482 110.148 35.8506 90.7178 39.1755ZM92.6143 53.9001C97.6334 53.9003 102.001 56.694 104.256 60.8142C102 62.7021 99.0975 64.704 95.4248 66.7761C89.7061 70.0025 84.6421 71.7538 80.4063 72.4196C79.7233 70.817 79.3448 69.0528 79.3448 67.1999C79.3448 59.8547 85.2858 53.9001 92.6143 53.9001ZM80.7656 42.2624C80.7656 43.4624 81.8194 44.9626 83.1358 44.9626C81.8194 44.9626 80.7657 46.4626 80.7656 47.9626C80.7656 46.4627 79.7128 44.9627 78.3965 44.9626C79.7129 44.9625 80.7656 43.4623 80.7656 42.2624ZM65.6006 3.55146C65.6008 5.45136 67.4968 7.82587 69.8662 7.82587C67.4967 7.82587 65.6006 10.2009 65.6006 12.5759C65.6006 10.201 63.7054 7.826 61.336 7.82587C63.7053 7.82575 65.6004 5.4513 65.6006 3.55146Z" fill="#863B87"/>
<path d="M90 178.016C94.4998 178.514 97.9999 182.336 98 186.979C98 191.961 93.9706 196 89 196C84.0294 196 80 191.961 80 186.979C80.0001 182.336 83.5002 178.514 88 178.016V109.804H90V178.016Z" fill="#863B87"/>
</svg>
