<svg width="120" height="196" viewBox="0 0 120 196" fill="none" xmlns="http://www.w3.org/2000/svg">
<path d="M60.7 178.057C65.1998 178.554 68.7 182.368 68.7 187C68.7 191.971 64.6705 196 59.7 196C54.7294 196 50.7 191.971 50.7 187C50.7 182.368 54.2001 178.554 58.7 178.057V110H60.7V178.057Z" fill="#863B87"/>
<path d="M59.767 100.868C60.4445 100.868 60.9939 101.417 60.9939 102.094V124.003C60.9939 124.681 60.4445 125.23 59.767 125.23C59.7599 125.23 59.7528 125.229 59.7457 125.229C59.7387 125.229 59.7316 125.23 59.7245 125.23C59.047 125.23 58.4976 124.681 58.4976 124.003V102.094C58.4976 101.417 59.047 100.868 59.7245 100.868C59.7316 100.868 59.7387 100.868 59.7457 100.868C59.7528 100.868 59.7599 100.868 59.767 100.868ZM36.1039 94.3886C36.4878 93.8303 37.2515 93.6889 37.8099 94.0728C38.3682 94.4567 38.5095 95.2204 38.1256 95.7788L25.712 113.831C25.328 114.39 24.5641 114.531 24.0058 114.147C23.4477 113.763 23.3062 112.999 23.6901 112.441L36.1039 94.3886ZM81.6816 94.0728C82.24 93.6889 83.0037 93.8303 83.3876 94.3886L95.8014 112.441C96.1852 112.999 96.0438 113.763 95.4856 114.147C94.9274 114.531 94.1635 114.39 93.7795 113.831L81.3658 95.7788C80.9819 95.2204 81.1233 94.4567 81.6816 94.0728ZM45.596 99.4122C45.819 98.7723 46.5185 98.4344 47.1584 98.6573C47.7982 98.8803 48.1361 99.5799 47.9132 100.22L43.882 111.787C43.659 112.427 42.9594 112.765 42.3196 112.542C41.6798 112.319 41.3418 111.62 41.5648 110.98L45.596 99.4122ZM72.3331 98.6573C72.973 98.4344 73.6725 98.7723 73.8955 99.4122L77.9267 110.98C78.1496 111.62 77.8117 112.319 77.1719 112.542C76.532 112.765 75.8325 112.427 75.6095 111.787L71.5783 100.22C71.3553 99.5799 71.6933 98.8803 72.3331 98.6573ZM27.3089 85.5178C27.8488 85.1085 28.6183 85.2143 29.0277 85.7542C29.4371 86.2941 29.3313 87.0637 28.7914 87.4731L19.0302 94.8745C18.4903 95.2839 17.7208 95.1782 17.3114 94.6383C16.902 94.0984 17.0077 93.3287 17.5476 92.9193L27.3089 85.5178ZM90.4638 85.7542C90.8732 85.2143 91.6427 85.1085 92.1826 85.5178L101.944 92.9193C102.484 93.3287 102.589 94.0984 102.18 94.6383C101.771 95.1782 101.001 95.2838 100.461 94.8745L90.7001 87.4731C90.1602 87.0637 90.0544 86.2941 90.4638 85.7542ZM57.9961 29.9641C58.6653 28.4102 60.8685 28.4102 61.5376 29.9641L69.6213 48.7352C69.9004 49.3833 70.5114 49.8272 71.2141 49.8924L91.5643 51.7798C93.2489 51.936 93.9298 54.0313 92.6587 55.1479L77.3044 68.6366C76.7742 69.1024 76.5409 69.8206 76.696 70.509L81.1895 90.4466C81.5615 92.097 79.7792 93.392 78.3245 92.5282L60.7511 82.0935C60.1444 81.7333 59.3894 81.7333 58.7826 82.0935L41.2093 92.5282C39.7546 93.392 37.9722 92.097 38.3442 90.4466L42.8377 70.509C42.9929 69.8206 42.7596 69.1024 42.2294 68.6366L26.875 55.1479C25.604 54.0313 26.2848 51.936 27.9694 51.7798L48.3197 49.8924C49.0224 49.8272 49.6334 49.3833 49.9125 48.7352L57.9961 29.9641ZM21.7101 73.5425C22.3551 73.3352 23.0461 73.69 23.2534 74.3351C23.4607 74.9802 23.1058 75.6712 22.4608 75.8785L1.60252 82.5813C0.957464 82.7886 0.266468 82.4337 0.0591525 81.7887C-0.148133 81.1436 0.206758 80.4525 0.851802 80.2452L21.7101 73.5425ZM96.2381 74.3351C96.4454 73.69 97.1364 73.3352 97.7814 73.5425L118.64 80.2452C119.285 80.4525 119.64 81.1436 119.432 81.7887C119.225 82.4337 118.534 82.7886 117.889 82.5813L97.0307 75.8785C96.3857 75.6712 96.0308 74.9802 96.2381 74.3351ZM20.275 62.4254C20.9526 62.4179 21.508 62.961 21.5154 63.6385C21.5229 64.3161 20.9796 64.8715 20.3021 64.879L8.05274 65.0138C7.37525 65.0212 6.81999 64.4781 6.8125 63.8006C6.80504 63.1231 7.34819 62.5677 8.02569 62.5602L20.275 62.4254ZM111.466 62.5602C112.143 62.5678 112.686 63.1231 112.679 63.8006C112.672 64.4781 112.116 65.0212 111.439 65.0138L99.1894 64.879C98.5119 64.8715 97.9686 64.3161 97.976 63.6385C97.9835 62.961 98.5389 62.4179 99.2165 62.4254L111.466 62.5602ZM0.0591525 43.5296C0.266449 42.8846 0.957441 42.5297 1.60252 42.737L22.4608 49.4397C23.1058 49.647 23.4607 50.3381 23.2534 50.9832C23.0461 51.6282 22.3551 51.9831 21.7101 51.7759L0.851802 45.073C0.20678 44.8657 -0.148126 44.1747 0.0591525 43.5296ZM117.889 42.737C118.534 42.5298 119.225 42.8846 119.432 43.5296C119.64 44.1747 119.285 44.8656 118.64 45.073L97.7814 51.7759C97.1364 51.9831 96.4454 51.6282 96.2381 50.9832C96.0308 50.3381 96.3856 49.647 97.0307 49.4397L117.889 42.737ZM17.3114 30.7837C17.7208 30.2439 18.4903 30.1382 19.0302 30.5475L28.7914 37.9489C29.3313 38.3583 29.4371 39.128 29.0277 39.6679C28.6183 40.2078 27.8488 40.3136 27.3089 39.9043L17.5476 32.5027C17.0077 32.0933 16.902 31.3236 17.3114 30.7837ZM100.461 30.5475C101.001 30.1382 101.771 30.2439 102.18 30.7837C102.589 31.3236 102.484 32.0933 101.944 32.5027L92.1826 39.9043C91.6427 40.3136 90.8732 40.2078 90.4638 39.6679C90.0544 39.128 90.1602 38.3583 90.7001 37.9489L100.461 30.5475ZM24.0058 11.1703C24.5642 10.7864 25.3281 10.9278 25.712 11.4861L38.1256 29.5385C38.5096 30.0969 38.3682 30.8606 37.8099 31.2445C37.2516 31.6284 36.4878 31.4871 36.1039 30.9289L23.6901 12.8763C23.3062 12.318 23.4476 11.5543 24.0058 11.1703ZM93.7795 11.4861C94.1634 10.9278 94.9273 10.7864 95.4856 11.1703C96.0438 11.5543 96.1852 12.318 95.8014 12.8763L83.3876 30.9289C83.0037 31.4871 82.2399 31.6284 81.6816 31.2445C81.1233 30.8606 80.9819 30.0969 81.3658 29.5385L93.7795 11.4861ZM42.3196 12.6001C42.9594 12.3771 43.659 12.7151 43.882 13.3549L47.9132 24.9227C48.1361 25.5625 47.7982 26.262 47.1584 26.485C46.5185 26.708 45.819 26.37 45.596 25.7302L41.5648 14.1624C41.3418 13.5226 41.6798 12.8231 42.3196 12.6001ZM75.6095 13.3549C75.8325 12.7151 76.532 12.3771 77.1719 12.6001C77.8117 12.8231 78.1496 13.5226 77.9267 14.1624L73.8955 25.7302C73.6725 26.37 72.973 26.708 72.3331 26.485C71.6933 26.262 71.3553 25.5625 71.5783 24.9227L75.6095 13.3549ZM59.767 0C60.4445 4.06018e-05 60.9939 0.549321 60.9939 1.22689V23.1356C60.9939 23.8131 60.4445 24.3624 59.767 24.3625C59.7599 24.3625 59.7528 24.3619 59.7457 24.3618C59.7387 24.3619 59.7316 24.3624 59.7245 24.3625C59.047 24.3624 58.4976 23.8131 58.4976 23.1356V1.22689C58.4976 0.549312 59.047 2.6015e-05 59.7245 0C59.7316 6.04759e-07 59.7387 0.000394295 59.7457 0.000513485C59.7528 0.000393992 59.7599 3.08849e-10 59.767 0Z" fill="#863B87"/>
</svg>
